Coordinates
version=1
nRows=29
nColumns=24
inDegrees=yes

Units are S.I. units (second, meters, Newtons, ...)
Angles are in degrees.

endheader
time	pelvis_tilt	pelvis_list	pelvis_rotation	pelvis_tx	pelvis_ty	pelvis_tz	hip_flexion_r	hip_adduction_r	hip_rotation_r	knee_angle_r	ankle_angle_r	subtalar_angle_r	mtp_angle_r	hip_flexion_l	hip_adduction_l	hip_rotation_l	knee_angle_l	ankle_angle_l	subtalar_angle_l	mtp_angle_l	lumbar_extension	lumbar_bending	lumbar_rotation
      1.95000000	     -7.12232845	     -1.93639841	      1.77620569	      0.14645719	      1.28848887	     -0.88562486	     11.31760570	      7.55138409	     14.41982954	     -4.95613840	     -2.18821164	     -7.11571656	     -3.37456385	     22.70378686	      1.31834532	     -4.45401557	    -57.92408010	    -14.68588661	    -29.48843433	      7.00361262	     -1.19268840	      5.16858563	     -1.78189274
      1.95500000	     -7.06958901	     -1.87241242	      1.64354351	      0.15148950	      1.28879346	     -0.88553296	     10.68171099	      7.48781830	     14.54129656	     -4.58580627	     -2.09163225	     -6.93730272	     -3.46117322	     23.36305641	      1.49816662	     -4.35712623	    -57.53959318	    -13.66692512	    -29.25480680	      7.09181902	     -1.33694115	      5.14815464	     -1.55323758
      1.96000000	     -7.00302783	     -1.82381743	      1.51049545	      0.15649758	      1.28904356	     -0.88545952	     10.03578480	      7.43956757	     14.69758337	     -4.21887990	     -2.00803078	     -6.79336368	     -3.50746445	     23.99196641	      1.66618820	     -4.24523266	    -57.07718067	    -12.68749832	    -29.01348311	      7.17184380	     -1.49562120	      5.14260923	     -1.30462507
      1.96500000	     -6.91986704	     -1.79230792	      1.37693828	      0.16149331	      1.28923553	     -0.88540094	      9.37447916	      7.40853910	     14.87089187	     -3.85390134	     -1.92651153	     -6.66742007	     -3.52685683	     24.58753471	      1.81908621	     -4.11481763	    -56.54573433	    -11.72181445	    -28.73204433	      7.24566379	     -1.67508604	      5.15644417	     -1.05333528
      1.97000000	     -6.85522838	     -1.76054505	      1.25193946	      0.16647749	      1.28935029	     -0.88536771	      8.74633545	      7.37458748	     15.06363439	     -3.51121411	     -1.84096046	     -6.57447374	     -3.52330327	     25.18410977	      1.98553405	     -3.95170010	    -55.93534218	    -10.74812548	    -28.37164517	      7.32596739	     -1.83688926	      5.17270958	     -0.83535833
      1.97500000	     -6.77053516	     -1.72832652	      1.02662135	      0.17129455	      1.28942496	     -0.88517740	      8.14222935	      7.37085137	     15.46445524	     -3.23199111	     -1.76031733	     -6.61636540	     -3.49325844	     25.73748151	      2.08898540	     -3.88418595	    -55.25064440	     -9.82340802	    -27.95773696	      7.40261158	     -2.05213070	      5.18529941	     -0.51072879
      1.98000000	     -6.70452787	     -1.71474069	      0.80848528	      0.17608860	      1.28941314	     -0.88501116	      7.57142620	      7.38348803	     15.88940507	     -2.96906525	     -1.73951965	     -6.74755295	     -3.40033807	     26.29854475	      2.17797351	     -3.78756232	    -54.50818746	     -8.86845256	    -27.49763546	      7.47453317	     -2.25162442	      5.22116372	     -0.23080616
      1.98500000	     -6.58860500	     -1.69309723	      0.56853540	      0.18087028	      1.28941625	     -0.88484972	      6.96758443	      7.38690341	     16.31758330	     -2.74976309	     -1.64173104	     -6.74757201	     -3.32716341	     26.76244149	      2.26904478	     -3.70798652	    -53.65539262	     -8.12031431	    -27.28189687	      7.50022945	     -2.50802592	      5.25060948	      0.10288077
      1.99000000	     -6.47752747	     -1.69546712	      0.34999126	      0.18567048	      1.28933136	     -0.88470809	      6.34948978	      7.40564672	     16.75432638	     -2.49222456	     -1.56513196	     -6.87372352	     -3.21484875	     27.22280742	      2.32897644	     -3.60500234	    -52.76697133	     -7.30112863	    -26.85444353	      7.55492090	     -2.75542038	      5.30364905	      0.39820402
      1.99500000	     -6.39628235	     -1.73364957	      0.13937320	      0.19051057	      1.28913676	     -0.88454587	      5.75673949	      7.46054384	     17.20683051	     -2.22351623	     -1.48502499	     -7.09031412	     -3.01708570	     27.70649701	      2.34176854	     -3.47926421	    -51.84594266	     -6.53262428	    -26.37586498	      7.60581480	     -2.95120845	      5.37639122	      0.69475411
      2.00000000	     -6.29029791	     -1.75056928	     -0.09685766	      0.19530501	      1.28894795	     -0.88441421	      5.18944011	      7.49491746	     17.63587122	     -2.05222377	     -1.36710182	     -7.15835701	     -2.86992972	     28.11527243	      2.37839533	     -3.36827119	    -50.81093712	     -5.90701248	    -26.17783954	      7.61325299	     -3.19593554	      5.44785499	      0.98076689
      2.00500000	     -6.17337726	     -1.79033233	     -0.32059519	      0.20012601	      1.28870368	     -0.88426991	      4.59632901	      7.54774647	     18.06493325	     -1.85724869	     -1.24449365	     -7.28702677	     -2.69124674	     28.49242986	      2.37828717	     -3.24724080	    -49.73137938	     -5.29150479	    -25.88441232	      7.63219920	     -3.43997171	      5.52829704	      1.26413841
      2.01000000	     -6.07205959	     -1.84550011	     -0.54613587	      0.20495957	      1.28839240	     -0.88413288	      4.03090508	      7.61428259	     18.48139422	     -1.68333013	     -1.10069537	     -7.41324852	     -2.50493546	     28.86436195	      2.35404794	     -3.12533834	    -48.60037417	     -4.74622032	    -25.64493980	      7.64437138	     -3.66931651	      5.62357439	      1.53816762
      2.01500000	     -5.95855961	     -1.91594944	     -0.77361008	      0.20979579	      1.28803301	     -0.88399459	      3.45857442	      7.69401080	     18.89109607	     -1.52251178	     -0.94283309	     -7.54150364	     -2.30442549	     29.19921183	      2.30187286	     -3.00570424	    -47.42061910	     -4.24811778	    -25.41587692	      7.65164982	     -3.90724964	      5.73484274	      1.82246541
      2.02000000	     -5.87054884	     -2.02078146	     -0.99149068	      0.21464491	      1.28758184	     -0.88386028	      2.89654083	      7.80317869	     19.33242865	     -1.32087850	     -0.87448862	     -7.87853828	     -1.82607663	     29.55375225	      2.20099703	     -2.87360410	    -46.22898895	     -3.68843124	    -25.00245932	      7.67227417	     -4.11748491	      5.87992116	      2.08810170
      2.02500000	     -5.80681527	     -2.11495763	     -1.21470689	      0.21953833	      1.28707594	     -0.88376644	      2.40013956	      7.90223695	     19.66466117	     -1.21467344	     -0.59386269	     -7.87870470	     -1.74880344	     29.89360777	      2.11865365	     -2.74824844	    -44.95140240	     -3.36071936	    -25.01686230	      7.64447333	     -4.29333597	      6.01955983	      2.35547131
      2.03000000	     -5.63801630	     -2.20446567	     -1.48390660	      0.22432023	      1.28667601	     -0.88355123	      1.82821312	      8.00813090	     20.07789081	     -1.17105087	     -0.39350569	     -7.94185389	     -1.57299073	     30.06822960	      1.98461511	     -2.69699755	    -43.58341623	     -3.05311558	    -24.81040593	      7.65010225	     -4.61129464	      6.13165436	      2.67632905
      2.03500000	     -5.52213397	     -2.33707016	     -1.71580456	      0.22918259	      1.28613417	     -0.88341213	      1.26582722	      8.13933315	     20.47618574	     -1.03720783	     -0.24661782	     -8.16647172	     -1.21088329	     30.29951240	      1.81819129	     -2.60113588	    -42.22981174	     -2.65353409	    -24.47264934	      7.67045773	     -4.85292202	      6.29419275	      2.97708114
      2.04000000	     -5.42537520	     -2.45734051	     -1.98641511	      0.23402581	      1.28556585	     -0.88322757	      0.79595627	      8.27769679	     20.84678779	     -1.05511951	      0.03348073	     -8.20158660	     -1.07351441	     30.50324865	      1.63798220	     -2.56115598	    -40.78930872	     -2.40641596	    -24.36797691	      7.65673054	     -5.09035671	      6.44537013	      3.25088906
      2.04500000	     -5.31853460	     -2.59030052	     -2.25015131	      0.23889584	      1.28497655	     -0.88305278	      0.30047217	      8.41964340	     21.21396090	     -1.04737479	      0.28534371	     -8.26065795	     -0.92033549	     30.66443599	      1.43681643	     -2.52537602	    -39.30735453	     -2.16255062	    -24.16603604	      7.65992027	     -5.32967895	      6.60155994	      3.54690407
      2.05000000	     -5.22251565	     -2.74631785	     -2.51425005	      0.24378506	      1.28432740	     -0.88285652	     -0.19289573	      8.58342147	     21.62095374	     -1.02075445	      0.46563390	     -8.48716455	     -0.52521913	     30.81433186	      1.19141972	     -2.51081677	    -37.80908378	     -1.80775111	    -23.74875407	      7.69883491	     -5.55930833	      6.77645617	      3.82063402
      2.05500000	     -5.13608239	     -2.90171137	     -2.80325475	      0.24865941	      1.28365522	     -0.88267979	     -0.63359024	      8.75166405	     22.00103942	     -1.08882114	      0.77090013	     -8.48730917	     -0.41515756	     30.93534341	      0.93931248	     -2.51595974	    -36.24755957	     -1.68059509	    -23.56771956	      7.69716466	     -5.78635317	      6.95435306	      4.14822031
      2.06000000	     -5.08307150	     -3.04944432	     -3.07217831	      0.25362432	      1.28292061	     -0.88252434	     -1.05079845	      8.90699735	     22.34370135	     -1.14507457	      1.09826854	     -8.51342731	     -0.33698979	     31.04857971	      0.70322178	     -2.50863164	    -34.63293229	     -1.51766919	    -23.34756593	      7.70269205	     -5.95498634	      7.11790647	      4.44200639
      2.06500000	     -4.95399059	     -3.23678394	     -3.39241795	      0.25846833	      1.28223593	     -0.88229791	     -1.51839774	      9.10842162	     22.78902106	     -1.25948226	      1.34937030	     -8.52825257	     -0.18496177	     31.06025079	      0.37091448	     -2.60341122	    -33.01414039	     -1.37836914	    -22.92804520	      7.75053774	     -6.24783559	      7.31588104	      4.77427090
      2.07000000	     -4.92883710	     -3.39304776	     -3.67212747	      0.26349355	      1.28142948	     -0.88214731	     -1.89193402	      9.27387972	     23.13798867	     -1.36000772	      1.68680234	     -8.58066381	     -0.08698949	     31.13014639	      0.10596227	     -2.63481697	    -31.32420504	     -1.24938045	    -22.59570180	      7.77997639	     -6.38191803	      7.48394290	      5.07255043
      2.07500000	     -4.85079509	     -3.57493073	     -4.00091798	      0.26844115	      1.28065905	     -0.88193329	     -2.29939322	      9.46773557	     23.58205858	     -1.50826049	      1.98964420	     -8.59156630	      0.04275842	     31.11529768	     -0.22959598	     -2.75918171	    -29.62601663	     -1.15971763	    -22.15390380	      7.83771595	     -6.60147000	      7.66867754	      5.41888873
      2.08000000	     -4.76040184	     -3.80323598	     -4.33562766	      0.27338903	      1.27984297	     -0.88171100	     -2.73926045	      9.70333605	     24.08248957	     -1.62281550	      2.15115738	     -8.75097140	      0.40385490	     31.08639802	     -0.63699230	     -2.93235856	    -27.98392638	     -0.83238889	    -21.35974376	      8.02139682	     -6.84492646	      7.90210615	      5.76228833
      2.08500000	     -4.72982942	     -3.99353418	     -4.68030445	      0.27838078	      1.27898659	     -0.88151936	     -3.07858142	      9.90806035	     24.55199092	     -1.82587539	      2.50664810	     -8.74512430	      0.54393499	     31.06651350	     -0.99012186	     -3.08961256	    -26.26142002	     -0.86964435	    -20.97169577	      8.08299209	     -7.01707604	      8.10017980	      6.08537516
      2.09000000	     -4.68686274	     -4.18565146	     -5.02020922	      0.28342075	      1.27812615	     -0.88134635	     -3.44359746	     10.10581981	     25.00166482	     -2.01419816	      2.82606096	     -8.74532004	      0.69907585	     30.99917715	     -1.34636428	     -3.27009594	    -24.53381524	     -0.83286820	    -20.46986105	      8.17863441	     -7.19502529	      8.29630172	      6.42059730
